<svg xmlns="http://www.w3.org/2000/svg" viewBox="0 0 391.3 83.8"><title>logo-2</title><path d="M0,1A26.5,26.5,0,0,1,3.2.35,29.07,29.07,0,0,1,7.7,0a23.52,23.52,0,0,1,4,.3A6.71,6.71,0,0,1,14.6,1.5,5.44,5.44,0,0,1,16.4,4,11.38,11.38,0,0,1,17,8v9.8a24.38,24.38,0,0,1,4.75-1.4A28,28,0,0,1,26.7,16a24.6,24.6,0,0,1,9.1,1.7,22.4,22.4,0,0,1,7.6,4.95,23.08,23.08,0,0,1,5.2,8.05,30,30,0,0,1,1.9,11.1,30.31,30.31,0,0,1-2,11.35A21.7,21.7,0,0,1,43.1,61.2a23.1,23.1,0,0,1-8.55,4.85A35.79,35.79,0,0,1,23.4,67.7a35.45,35.45,0,0,1-11.2-1.55A29.26,29.26,0,0,1,4.4,62.3a9.39,9.39,0,0,1-4.4-8ZM23.4,54.3a8.69,8.69,0,0,0,7.15-3.15Q33.1,48,33.1,41.8t-2.6-9.4a8.65,8.65,0,0,0-7-3.1,13,13,0,0,0-3.45.4,20.34,20.34,0,0,0-3.15,1.2V52.7a10.12,10.12,0,0,0,2.65,1.15A14,14,0,0,0,23.4,54.3Z"/><path d="M75.8,66a23.4,23.4,0,0,1-3.15.6,32.28,32.28,0,0,1-4.45.3,23.52,23.52,0,0,1-4-.3,6.71,6.71,0,0,1-3-1.2A5.77,5.77,0,0,1,59.45,63a10.65,10.65,0,0,1-.65-4.05v-30A8.5,8.5,0,0,1,59.65,25,9.18,9.18,0,0,1,62.1,22a17.55,17.55,0,0,1,3.95-2.35,40.41,40.41,0,0,1,5-1.85,43.45,43.45,0,0,1,5.6-1.25,37.77,37.77,0,0,1,5.8-.45A13.67,13.67,0,0,1,90.1,18C92,19.18,92.9,21.2,92.9,24a9.53,9.53,0,0,1-.4,2.75,12.67,12.67,0,0,1-1,2.45c-1.4,0-2.83.07-4.3.2a42.39,42.39,0,0,0-4.3.6c-1.4.27-2.72.55-4,.85a17.3,17.3,0,0,0-3.15,1Z"/><path d="M123.7,67.7a35,35,0,0,1-11-1.65A24.78,24.78,0,0,1,104,61.1a22.92,22.92,0,0,1-5.9-8.3A29.3,29.3,0,0,1,95.9,41.1a27.27,27.27,0,0,1,2.15-11.35A22.24,22.24,0,0,1,103.7,22a22.66,22.66,0,0,1,8-4.5A29.69,29.69,0,0,1,120.9,16a27.71,27.71,0,0,1,9.65,1.6,23.21,23.21,0,0,1,7.5,4.4,19.66,19.66,0,0,1,4.9,6.7,20.62,20.62,0,0,1,1.75,8.5,6.84,6.84,0,0,1-1.9,5.2,9.51,9.51,0,0,1-5.3,2.3l-24.7,3.7a8.29,8.29,0,0,0,4.5,5A17.61,17.61,0,0,0,125.1,55a28,28,0,0,0,7.75-1,24.94,24.94,0,0,0,6-2.45,8.53,8.53,0,0,1,2.7,2.8,7.21,7.21,0,0,1,1.1,3.8,7.14,7.14,0,0,1-4.2,6.7,22.45,22.45,0,0,1-7.2,2.3A50.78,50.78,0,0,1,123.7,67.7Zm-2.8-39.3a9.94,9.94,0,0,0-4.15.8,8.21,8.21,0,0,0-4.5,4.85,11.12,11.12,0,0,0-.65,3.15l17.1-2.8a7.6,7.6,0,0,0-2.2-4A7.39,7.39,0,0,0,120.9,28.4Z"/><path d="M180.6,64.6a10.74,10.74,0,0,1-3.8,2,19.21,19.21,0,0,1-5.7.75,19.72,19.72,0,0,1-7.1-1.15,6.83,6.83,0,0,1-4-3.25,53.88,53.88,0,0,1-2.55-7.6Q156,50.1,154.6,43.9T152,31.3Q150.69,24.9,150,20a13,13,0,0,1,8.9-3.5,10,10,0,0,1,5.75,1.55c1.5,1,2.41,2.82,2.75,5.35q1,7.61,1.7,12.55c.46,3.3.85,6,1.15,8.1s.53,3.7.7,4.8.31,2,.45,2.65h.4q.3-1.61,1-4.65t1.75-7q1-3.9,2.1-8.45t2.2-9a21.2,21.2,0,0,1,3.95-1.7,16.7,16.7,0,0,1,4.85-.6,14.92,14.92,0,0,1,6,1.1,5.39,5.39,0,0,1,3.2,3.4c.8,2.93,1.56,5.78,2.3,8.55s1.4,5.33,2,7.7,1.13,4.47,1.6,6.3.8,3.28,1,4.35h.5q1.09-7.7,2.15-16t2-16.9a13.48,13.48,0,0,1,3.8-1.6,16.54,16.54,0,0,1,4-.5A10.44,10.44,0,0,1,222,18q2.3,1.5,2.3,5.2a34.57,34.57,0,0,1-.5,4.8q-.51,3.2-1.3,7.2c-.54,2.67-1.15,5.47-1.85,8.4s-1.4,5.77-2.1,8.5-1.37,5.2-2,7.4-1.19,3.9-1.65,5.1a10.86,10.86,0,0,1-4.3,2,24.73,24.73,0,0,1-6.2.75q-8.4,0-9.9-4.2-.6-1.8-1.5-4.55c-.6-1.83-1.24-3.85-1.9-6s-1.3-4.48-1.9-6.85-1.1-4.65-1.5-6.85q-.7,3.5-1.7,7.25T184,53.35c-.7,2.37-1.35,4.53-1.95,6.5S180.93,63.4,180.6,64.6Z"/><path d="M229.9,41.8a29.78,29.78,0,0,1,2-11.45,21.79,21.79,0,0,1,5.55-8,22.71,22.71,0,0,1,8.3-4.75A32.91,32.91,0,0,1,256,16a21.84,21.84,0,0,1,3.9.35,15.69,15.69,0,0,1,3.1.85V1a26.08,26.08,0,0,1,3.2-.65A28.88,28.88,0,0,1,270.7,0a23.61,23.61,0,0,1,3.95.3,6.76,6.76,0,0,1,3,1.2A5.44,5.44,0,0,1,279.4,4,11.38,11.38,0,0,1,280,8V55.4a8.55,8.55,0,0,1-4.4,7.5,30.71,30.71,0,0,1-7.5,3.35,39,39,0,0,1-22.25-.35,23.51,23.51,0,0,1-8.7-5.2,22.28,22.28,0,0,1-5.4-8.15A29.31,29.31,0,0,1,229.9,41.8Zm28.4-12.5q-5.4,0-8.3,3.1t-2.9,9.4q0,6.2,2.7,9.35t7.8,3.15a9,9,0,0,0,3.25-.55,7.57,7.57,0,0,0,2.25-1.25v-22A9.19,9.19,0,0,0,258.3,29.3Z"/><path d="M310.6,16a41.25,41.25,0,0,1,9.85,1.1,22,22,0,0,1,7.6,3.35,15.18,15.18,0,0,1,4.85,5.7,18.3,18.3,0,0,1,1.7,8.15V56.7A6.24,6.24,0,0,1,333.15,61a14.58,14.58,0,0,1-3.45,2.85q-6.51,3.9-18.3,3.9a41.55,41.55,0,0,1-9.55-1,22.73,22.73,0,0,1-7.3-3,13.67,13.67,0,0,1-4.7-5.1,15.12,15.12,0,0,1-1.65-7.2q0-6.9,4.1-10.6T305,36.2l13.1-1.4v-.7A4.29,4.29,0,0,0,315.55,30a17.21,17.21,0,0,0-7.35-1.25,34.17,34.17,0,0,0-7.4.8,38.91,38.91,0,0,0-6.5,2,6.92,6.92,0,0,1-2.2-2.75,8.7,8.7,0,0,1-.9-3.85,6.38,6.38,0,0,1,1.25-4.15,9.61,9.61,0,0,1,3.85-2.65,29.92,29.92,0,0,1,6.85-1.6A60,60,0,0,1,310.6,16Zm.8,39.3a22.85,22.85,0,0,0,3.75-.35,9.14,9.14,0,0,0,3.05-1V46l-7.2.6a11,11,0,0,0-4.6,1.2,3.24,3.24,0,0,0-1.8,3,4,4,0,0,0,1.55,3.25Q307.7,55.3,311.4,55.3Z"/><path d="M351.4,53.7c-.74-1.67-1.52-3.53-2.35-5.6s-1.7-4.43-2.6-7.1-1.84-5.72-2.8-9.15-2-7.38-3-11.85a13,13,0,0,1,8.9-3.5A10.69,10.69,0,0,1,355.3,18c1.53,1,2.66,2.78,3.4,5.45l7.9,27.5h.4c.8-2.27,1.58-4.73,2.35-7.4s1.51-5.42,2.25-8.25,1.41-5.67,2-8.5,1.18-5.62,1.65-8.35a16.61,16.61,0,0,1,7.9-1.9A10.44,10.44,0,0,1,389,18q2.29,1.5,2.3,5.2a33.38,33.38,0,0,1-.7,6.25c-.47,2.37-1.09,4.88-1.85,7.55s-1.67,5.42-2.7,8.25-2.12,5.62-3.25,8.35-2.3,5.32-3.5,7.75-2.37,4.62-3.5,6.55a70.47,70.47,0,0,1-5.2,8,28.66,28.66,0,0,1-4.6,4.85,13.07,13.07,0,0,1-4.4,2.4,16.29,16.29,0,0,1-4.6.65,9.38,9.38,0,0,1-6.8-2.5,10.46,10.46,0,0,1-3.1-6.5q3.19-2.51,6.4-5.55A68.53,68.53,0,0,0,359.3,63a9.39,9.39,0,0,1-3.65-2.35Q353.7,58.81,351.4,53.7Z"/></svg>