<svg xmlns="http://www.w3.org/2000/svg" viewBox="0 0 397.04 96.69"><title>logo</title><path d="M23.88,14c8.15-.56,14.1-.45,17.85.29s6.46,1.73,8.13,3c3.69,2.73,5.69,7.12,6,13.18.25,4.53-2,9-6.74,13.31,6.53,2.75,10,8.41,10.49,16.92q.56,10-5.78,15.21c-4.23,3.49-10.68,5.66-19.39,6.58q-14.37.95-28.71,2.08c-.66-3.28-1-4.92-1.66-8.2.79-1.2,2.55-2.44,5.31-3.72Q7.68,49.79,5.93,27,1.6,25.83,0,24.05c.15-3.34.23-5,.38-8.35C9.78,15,14.48,14.61,23.88,14Zm2.2,10.78-5.36.37c.48,6.91.73,10.36,1.21,17.26l8.4-.58q5.22-.34,7.82-3.12a8.35,8.35,0,0,0,2.37-6.51,7.47,7.47,0,0,0-2.31-5.52,8.23,8.23,0,0,0-4.68-2A51.75,51.75,0,0,0,26.08,24.74Zm5.7,27.88-9.08.62c.54,7.58.8,11.37,1.34,19l7-.49q6.89-.46,10.3-2.68c2.27-1.48,3.31-4,3.1-7.41s-1.31-5.89-3.27-7.31S36.06,52.33,31.78,52.62Z" transform="translate(0 -5.67)"/><path d="M95,41.38c-5.18.22-8.73,1.35-10.62,3.37l1,22.87c5.52.75,9.33,2,11.42,3.71-.27,3.1-.41,4.64-.69,7.74q-14.42.59-28.84,1.37c-.57-3.06-.85-4.59-1.42-7.64.88-1.31,2.67-2.55,5.39-3.69-.57-11.1-.86-16.66-1.43-27.76a13.49,13.49,0,0,1-5.82-3.1c.25-3.1.37-4.65.62-7.74a48.14,48.14,0,0,1,10.12-1.72q4.53-.22,7.53-.16c.11,2.51.17,3.77.29,6.29a18.27,18.27,0,0,1,5.86-4.72,15.91,15.91,0,0,1,6.67-2,11.31,11.31,0,0,1,4.18.33c.09,5.2.13,7.8.21,13A30,30,0,0,0,95,41.38Z" transform="translate(0 -5.67)"/><path d="M129.68,78.7q-12.11.35-18.43-5.82t-6.82-18.36A34.18,34.18,0,0,1,106.1,41.7a19.27,19.27,0,0,1,5.55-8.46,26.31,26.31,0,0,1,16.59-6.12q9.57-.27,14.77,4.38c3.47,3.09,5.27,8.74,5.44,16.94.09,4.8-2.27,7.24-7.08,7.35-8.84.21-13.26.33-22.09.61q.6,6.29,3.58,8.79c2,1.68,5.06,2.45,9.25,2.34a27,27,0,0,0,6.56-1,19.87,19.87,0,0,0,4.53-1.71l1.4-.83c1.29,3.17,1.93,4.76,3.21,7.94a20.61,20.61,0,0,1-1.73,1.78c-.76.72-2.69,1.69-5.8,2.93A30.67,30.67,0,0,1,129.68,78.7ZM135.24,47a23.59,23.59,0,0,0,.11-3.4,7.28,7.28,0,0,0-1.74-4.21c-1.14-1.47-3.05-2.17-5.75-2.1a7.85,7.85,0,0,0-6.13,2.59q-2.08,2.46-2.61,8.18C125.56,47.66,128.79,47.44,135.24,47Z" transform="translate(0 -5.67)"/><path d="M200.8,77.52c-2.05-6.32-3.08-9.48-5.16-15.79a62.82,62.82,0,0,1-2.57-12c-.13-1-.19-1.44-.31-2.4h-1.43a85.65,85.65,0,0,1-3,14.31c-1.88,6.37-2.81,9.55-4.67,15.92-5.73,0-8.6.06-14.33.13q-6.58-19.57-13.38-39.1-4.44-1.43-6.12-3.49c.35-3.09.52-4.63.88-7.72,9.63-.19,14.45-.26,24.09-.35l1.1,7.69a14.61,14.61,0,0,1-6.22,3.67c2.5,10.17,3.73,15.26,6.18,25.43h1.42q1.08-5.31,2.56-10.92c2.69-10.3,4-15.45,6.8-25.75l11.53,0c2.76,10.2,4.13,15.3,6.84,25.51,1,4.44,1.51,6.66,2.51,11.11h1.42q3.82-16.87,5.21-22.67l.63-2.8q-4.61-1.62-6.14-3.63c.43-3.08.64-4.62,1.06-7.7,9.14,0,13.71.08,22.86.2.37,3.09.55,4.63.92,7.72q-1.77,2.27-6.51,3.72-6.61,19.45-13,39C208.67,77.54,206.05,77.53,200.8,77.52Z" transform="translate(0 -5.67)"/><path d="M261.68,6.69a52,52,0,0,1,11.35-1c3.6.1,6.68.3,9.23.58l-1.95,60a20.78,20.78,0,0,1,5.52,1.89c-.11,3.16-.17,4.74-.28,7.89-4.11,2-10.83,3.94-15.44,2.72a4.84,4.84,0,0,1-1.92-1.86,5.06,5.06,0,0,1-1-2.53,19.35,19.35,0,0,1-5.83,2.9,20.89,20.89,0,0,1-7,1.09c-7.26-.17-12.48-2.2-15.69-6.15S233.92,61.83,234,53q.21-15.09,7.9-21.08a25.21,25.21,0,0,1,16.57-5.06A38,38,0,0,1,267.13,28l.27-9.89a15.56,15.56,0,0,1-6.94-3.78C261,11.29,261.19,9.76,261.68,6.69Zm-4.95,61.5A13,13,0,0,0,266.14,65c.29-10.71.43-16.07.72-26.79A37.86,37.86,0,0,0,258,37a7.1,7.1,0,0,0-6.9,3.9c-1.46,2.67-2.23,6.69-2.34,12.05s.5,9.23,1.8,11.59A6.8,6.8,0,0,0,256.73,68.19Z" transform="translate(0 -5.67)"/><path d="M293.31,36.08c0-1,.11-2.06.22-3.2a43.15,43.15,0,0,1,20.77-4.14q11,.51,15.59,4.81c3.05,2.87,4.39,7.43,4.06,13.69L332.8,68.51a22.74,22.74,0,0,1,5.48,2c-.19,3.47-.29,5.21-.49,8.69-3.52,1.4-12.76,3.19-14.85,1.61-.64-.49-1.05-3.89-1.4-6.37-3.1,4-8.44,5.89-16,5.56a17.85,17.85,0,0,1-11.4-4.36,12.94,12.94,0,0,1-4.41-10.78q.24-6.69,4.91-10.37c3.12-2.45,7.68-3.56,13.66-3.29,4.45.19,6.67.29,11.12.5.09-1.91.14-2.87.23-4.79.25-5.19-2.46-7.93-8.13-8.19-2.12-.09-4.89,0-5.26.38-.76.89-.75,4.94-1.5,6.44-4-.17-6-.25-10-.4A20.24,20.24,0,0,1,293.31,36.08ZM310.3,70a11.2,11.2,0,0,0,8.34-2.61c.16-3.28.23-4.92.39-8.2l-7.12-.33c-4.88-.22-7.39,1.52-7.55,5.18a5.6,5.6,0,0,0,1.4,4.16A6.19,6.19,0,0,0,310.3,70Z" transform="translate(0 -5.67)"/><path d="M351.8,93.24c1.21.08,2.57-1,4.08-3.1a22.4,22.4,0,0,0,3.37-7.75q-7-19.9-14.28-39.74-4.92-1.89-6.54-4.18l1.45-7.63c9.46.52,14.19.81,23.65,1.43.21,3.1.32,4.65.52,7.75a11.54,11.54,0,0,1-4.69,2.6c1.87,6.17,2.8,9.26,4.64,15.43a44.31,44.31,0,0,1,1.92,9.45c.08.57.13.85.21,1.42l1.42.09a55.5,55.5,0,0,1,3.56-10.28c2.56-5.76,3.85-8.63,6.43-14.39a11.74,11.74,0,0,1-5.08-3.76L374,33c9.05.63,13.57,1,22.61,1.67.17,3.1.25,4.65.42,7.75q-2,2.16-7.05,3.37-9.87,18.8-19.57,37.68c-3.67,7.17-6.39,11.76-8.2,13.78a14.54,14.54,0,0,1-12.63,5.11c-5.23-.33-9.13-1.92-11.72-4.8a19,19,0,0,1,0-2,23.9,23.9,0,0,1,2.9-10.26l8.35.5a16.59,16.59,0,0,1,1.26,7.39Z" transform="translate(0 -5.67)"/><ellipse cx="189.3" cy="89.99" rx="135.78" ry="4.99"/></svg>