<?xml version="1.0" ?><svg height="32px" id="Layer_1" style="enable-background:new 0 0 32 32;" version="1.1" viewBox="0 0 32 32" width="32px" xml:space="preserve" xmlns="http://www.w3.org/2000/svg" xmlns:xlink="http://www.w3.org/1999/xlink"><path d="M26.8,7L22,2.2C21.3,1.5,21,1,20,1v8h8C28,8.2,27.6,7.8,26.8,7z M18,9V1H6C4.9,1,4,1.9,4,3v26c0,1.1,0.9,2,2,2h20  c1.1,0,2-0.9,2-2V11h-8C18.8,11,18,10,18,9z M9,9h6c0.6,0,1,0.4,1,1c0,0.6-0.4,1-1,1H9c-0.6,0-1-0.4-1-1C8,9.4,8.4,9,9,9z M23,23H9  c-0.6,0-1-0.4-1-1c0-0.6,0.4-1,1-1h14c0.6,0,1,0.4,1,1C24,22.6,23.6,23,23,23z M24,16c0,0.6-0.4,1-1,1H9c-0.6,0-1-0.4-1-1  c0-0.6,0.4-1,1-1h14C23.6,15,24,15.4,24,16z"/></svg>