<?xml version="1.0" ?><svg height="32px" id="Layer_1" style="enable-background:new 0 0 32 32;" version="1.1" viewBox="0 0 32 32" width="32px" xml:space="preserve" xmlns="http://www.w3.org/2000/svg" xmlns:xlink="http://www.w3.org/1999/xlink"><path d="M8,2H4C2.9,2,2,2.9,2,4v4c0,1.1,0.9,2,2,2h4c1.1,0,2-0.9,2-2V4C10,2.9,9.1,2,8,2z M18,2h-4c-1.1,0-2,0.9-2,2v4  c0,1.1,0.9,2,2,2h4c1.1,0,2-0.9,2-2V4C20,2.9,19.1,2,18,2z M28,2h-4c-1.1,0-2,0.9-2,2v4c0,1.1,0.9,2,2,2h4c1.1,0,2-0.9,2-2V4  C30,2.9,29.1,2,28,2z M8,12H4c-1.1,0-2,0.9-2,2v4c0,1.1,0.9,2,2,2h4c1.1,0,2-0.9,2-2v-4C10,12.9,9.1,12,8,12z M18,12h-4  c-1.1,0-2,0.9-2,2v4c0,1.1,0.9,2,2,2h4c1.1,0,2-0.9,2-2v-4C20,12.9,19.1,12,18,12z M28,12h-4c-1.1,0-2,0.9-2,2v4c0,1.1,0.9,2,2,2h4  c1.1,0,2-0.9,2-2v-4C30,12.9,29.1,12,28,12z M8,22H4c-1.1,0-2,0.9-2,2v4c0,1.1,0.9,2,2,2h4c1.1,0,2-0.9,2-2v-4C10,22.9,9.1,22,8,22z   M18,22h-4c-1.1,0-2,0.9-2,2v4c0,1.1,0.9,2,2,2h4c1.1,0,2-0.9,2-2v-4C20,22.9,19.1,22,18,22z M28,22h-4c-1.1,0-2,0.9-2,2v4  c0,1.1,0.9,2,2,2h4c1.1,0,2-0.9,2-2v-4C30,22.9,29.1,22,28,22z"/></svg>