<?xml version="1.0" ?><svg height="64" viewBox="0 0 64 64" width="64" xmlns="http://www.w3.org/2000/svg"><title/><g data-name="group 1" id="group_1"><path d="M62,46.5,32,63.82v-2L62,44.5ZM38,30.68,8,48v2L38,32.68Zm12,6.88L20,54.89v2L50,39.56Z" fill="#bc7e39"/><path d="M2,44.49,8,48v2L2,46.5Zm12,8.94,6,3.46v-2l-6-3.51Zm12,6.93,6,3.46v-2l-6-3.51Z" fill="#daa665"/><path d="M62,44.5,32,61.82l-6-3.51L55.94,41ZM32,27.18,2,44.49,8,48,38,30.68Zm11.92,6.88L14,51.38l6,3.51L50,37.56Z" fill="#daa665"/><path d="M8,42,2,38.55v5.94L8,48ZM20,48.9l-6-3.46v5.94l6,3.51Zm12,6.93-6-3.46v5.94l6,3.51Z" fill="#bc7e39"/><path d="M20,35.07,14,31.6v5.95l6,3.52Zm12-.93V28.19l-6-3.46v5.94ZM32,42,26,38.5v5.94L32,48ZM44,41V35.09l-6-3.47v5.94Zm0,7.85-6-3.47v5.95l6,3.52ZM56,48V42l-6-3.46v5.94Z" fill="#bc7e39"/><path d="M26,37.61l-6,3.46v-6l6-3.42ZM8,42v6l6-3.46V38.6ZM38,30.68V24.73l-6,3.46v5.95ZM38,44.5,32,48V42l6-3.41ZM20,48.9v6l6-3.46V45.49ZM50,37.57V31.62l-6,3.47V41Zm0,13.86-6,3.46v-6l6-3.42Zm-18,4.4v6l6-3.46V52.42ZM62,44.5v-6L56,42v6Z" fill="#8d5f2b"/><path d="M26,31.65l-5.92-3.59L14,31.6l6,3.47Zm-12,7L8,35,2,38.55,8,42ZM32,28.19l6-3.46-6-3.55-6,3.55Zm6,10.36L32.08,35,26,38.5,32,42ZM26,45.49l-6-3.58-6,3.53,6,3.46Zm18-10.4,6-3.47-6-3.55-6,3.55Zm6,10.38-5.92-3.59L38,45.42l6,3.47Zm-12,7-6-3.59-6,3.54,6,3.46ZM56,42l6-3.46L56,35l-6,3.55Z" fill="#daa665"/><path d="M2,36.55,32,53.87v2L2,38.55ZM26,24.73,56,42.05v-2L26,22.73ZM14,31.61,44,48.94v-2L14,29.61Z" fill="#daa665"/><path d="M62,38.55l-6,3.5v-2l6-3.51ZM50,43.43l-6,3.51v2l6-3.46ZM38,50.36l-6,3.51v2l6-3.47Z" fill="#bc7e39"/><path d="M8.06,33.05,38,50.36l-6,3.51L2,36.55ZM26,22.73,56,40.05l6-3.51L32,19.23ZM14,29.61,44,46.94l6-3.51L20.08,26.11Z" fill="#bc7e39"/><polygon fill="#daa665" points="38 20.73 8 38.05 8 40.05 38 22.73 38 20.73"/><polygon fill="#eecfa1" points="2 34.54 8 38.05 8 40.05 2 36.55 2 34.54"/><polygon fill="#f9eacf" points="32 17.23 2 34.54 8 38.05 38 20.73 32 17.23"/><polygon fill="#daa665" points="62 34.55 32 51.87 32 53.87 62 36.55 62 34.55"/><polygon fill="#eecfa1" points="24 47.24 32 51.87 32 53.87 24 49.25 24 47.24"/><polygon fill="#f9eacf" points="54 29.93 24 47.24 32 51.87 62 34.55 54 29.93"/><polygon fill="#daa665" points="46 25.31 16 42.63 16 44.63 46 27.31 46 25.31"/><polygon fill="#eecfa1" points="10 39.12 16 42.63 16 44.63 10 41.13 10 39.12"/><polygon fill="#f9eacf" points="40 21.81 10 39.12 16 42.63 46 25.31 40 21.81"/><polygon fill="#daa665" points="52 28.81 22 46.13 22 48.13 52 30.81 52 28.81"/><polygon fill="#eecfa1" points="18 43.79 22 46.13 22 48.13 18 45.8 18 43.79"/><polygon fill="#f9eacf" points="48 26.48 18 43.79 22 46.13 52 28.81 48 26.48"/><path d="M8.73,36.31c0,.27-.44.5-1,.5s-1-.23-1-.5.44-.5,1-.5S8.73,36,8.73,36.31ZM14,39.12c0,.27-.44.5-1,.5s-1-.23-1-.5.44-.5,1-.5S14,38.84,14,39.12Zm30-14c0,.27-.44.5-1,.5s-1-.23-1-.5.44-.5,1-.5S44,24.82,44,25.1ZM40.79,24c0,.27-.44.5-1,.5s-1-.23-1-.5.44-.5,1-.5S40.79,23.74,40.79,24Zm-8.7,25.15c-.54,0-1,.23-1,.5s.44.5,1,.5,1-.22,1-.5S32.63,49.17,32.09,49.17Zm26.58-16c-.54,0-1,.22-1,.5s.44.5,1,.5,1-.23,1-.5S59.21,33.13,58.67,33.13Zm-26.78-15c-.54,0-1,.22-1,.5s.44.5,1,.5,1-.23,1-.5S32.43,18.12,31.89,18.12Zm-9.3,26.09c0,.27-.44.5-1,.5s-1-.23-1-.5.44-.5,1-.5S22.59,43.93,22.59,44.21ZM27,46.55c-.54,0-1,.23-1,.5s.43.5,1,.5,1-.22,1-.5S27.57,46.55,27,46.55Zm28.55-15c-.54,0-1,.22-1,.5s.44.5,1,.5,1-.22,1-.5S56.11,31.5,55.57,31.5ZM49,28.06c-.54,0-1,.23-1,.5s.44.5,1,.5,1-.22,1-.5S49.52,28.06,49,28.06Z" fill="#fff"/></g></svg>