<?xml version="1.0" ?><svg id="fill" viewBox="0 0 64 64" xmlns="http://www.w3.org/2000/svg"><rect height="23.89" style="fill:#c6a16f" width="22" x="21" y="5"/><path d="M43,28.89H21A26.781,26.781,0,0,0,42.8,6.4L43,5Z" style="fill:#896942"/><polygon points="35 13 32 10 29 13 29 3 35 3 35 13" style="fill:#e8d8bf"/><rect height="2" style="fill:#896942" width="4" x="30" y="16"/><rect height="5.607" style="fill:#c6a16f" width="4" x="8" y="52.252"/><rect height="5.607" style="fill:#c6a16f" width="4" x="30" y="52.252"/><rect height="5.607" style="fill:#c6a16f" width="4" x="52" y="52.252"/><rect height="23.388" style="fill:#c6a16f" width="44" x="10" y="27"/><path d="M32,50.388H10A27.048,27.048,0,0,0,31.878,27.813L32,27Z" style="fill:#896942"/><path d="M54,50.388H32a25.639,25.639,0,0,0,21.954-22.91L54,27Z" style="fill:#896942"/><polygon points="46 37 43 34 40 37 40 27 46 27 46 37" style="fill:#e8d8bf"/><polygon points="24 37 21 34 18 37 18 27 24 27 24 37" style="fill:#e8d8bf"/><rect height="2" style="fill:#896942" width="4" x="41" y="40"/><rect height="2" style="fill:#896942" width="4" x="19" y="40"/><rect height="4" style="fill:#ffd789" width="52" x="6" y="57"/><rect height="4" style="fill:#ffd789" width="52" x="6" y="49"/><path d="M6,56a1,1,0,0,0-1,1v4a1,1,0,0,0,1,1H58a1,1,0,0,0,1-1V57a1,1,0,0,0-1-1H57V54h1a1,1,0,0,0,1-1V49a1,1,0,0,0-1-1H55V27a1,1,0,0,0-1-1H44V5a1,1,0,0,0-1-1H36V3a1,1,0,0,0-1-1H29a1,1,0,0,0-1,1V4H21a1,1,0,0,0-1,1V26H10a1,1,0,0,0-1,1V48H6a1,1,0,0,0-1,1v4a1,1,0,0,0,1,1H7v2ZM46,38a.987.987,0,0,0,.383-.076A1,1,0,0,0,47,37V28h6V48H33V28h6v9a1,1,0,0,0,1.707.707L43,35.413l2.293,2.293A1,1,0,0,0,46,38ZM45,28v6.586l-1.293-1.293a1,1,0,0,0-1.414,0L41,34.585V28h4ZM30,4h4v6.586L32.707,9.292a1,1,0,0,0-1.414,0L30,10.585ZM22,6h6v7a1,1,0,0,0,1.707.707L32,11.413l2.293,2.293A1,1,0,0,0,36,13V6h6V26H22ZM19,28h4v6.586l-1.293-1.293a1,1,0,0,0-1.414,0L19,34.585Zm-8,0h6v9a1,1,0,0,0,1.707.707L21,35.413l2.293,2.293A1,1,0,0,0,25,37V28h6V48H11ZM7,50H57v2H7Zm48,4v2H53V54Zm-4,0v2H35V54ZM33,54v2H31V54Zm-4,0v2H13V54ZM11,54v2H9V54ZM8,58H57v2H7V58Z"/><rect height="2" width="4" x="30" y="15.999"/><rect height="2" width="4" x="41" y="39.999"/><rect height="2" width="4" x="19" y="39.999"/></svg>