<?xml version="1.0" ?><svg height="32px" id="Layer_1" style="enable-background:new 0 0 32 32;" version="1.1" viewBox="0 0 32 32" width="32px" xml:space="preserve" xmlns="http://www.w3.org/2000/svg" xmlns:xlink="http://www.w3.org/1999/xlink"><path d="M29,3H3C1.9,3,1,3.9,1,5v22c0,1.1,0.9,2,2,2h26c1.1,0,2-0.9,2-2V5C31,3.9,30.1,3,29,3z M20,7c1.7,0,3,1.3,3,3s-1.3,3-3,3  s-3-1.3-3-3S18.3,7,20,7z M26,25H6c-0.5,0-1-0.4-1-1c0-0.3,0.1-0.5,0.4-1l5.6-9.3c0.3-0.5,0.6-0.7,1-0.7c0.3,0,0.6,0.1,1,0.7l4,6.3  l3-2.5c0.3-0.3,0.6-0.5,1-0.5c0.3,0,0.6,0.1,1,0.6l4.5,5.4c0.3,0.4,0.5,0.6,0.5,1C27,24.5,26.6,25,26,25z"/></svg>