<?xml version="1.0" ?><svg height="32px" id="Layer_1" style="enable-background:new 0 0 32 32;" version="1.1" viewBox="0 0 32 32" width="32px" xml:space="preserve" xmlns="http://www.w3.org/2000/svg" xmlns:xlink="http://www.w3.org/1999/xlink"><path d="M27,10c-2.209,0-4,1.791-4,4c0,0.292,0.035,0.574,0.094,0.848l-3.481,3.165C18.557,17.374,17.324,17,16,17  c-0.518,0-1.022,0.06-1.508,0.167L9.964,9.016C10.605,8.176,11,7.139,11,6c0-2.761-2.239-5-5-5S1,3.239,1,6s2.239,5,5,5  c0.159,0,0.309-0.032,0.464-0.047l4.532,8.157C9.763,20.372,9,22.096,9,24c0,3.866,3.134,7,7,7s7-3.134,7-7  c0-1.086-0.255-2.111-0.696-3.028l3.494-3.176C26.18,17.917,26.578,18,27,18c2.209,0,4-1.791,4-4C31,11.791,29.209,10,27,10z"/></svg>