<?xml version="1.0" ?><svg height="32px" id="Layer_1" style="enable-background:new 0 0 32 32;" version="1.1" viewBox="0 0 32 32" width="32px" xml:space="preserve" xmlns="http://www.w3.org/2000/svg" xmlns:xlink="http://www.w3.org/1999/xlink"><path d="M32,14c0-0.9-0.6-1.7-1.6-2L22,9.8l-4-8.3C17.5,0.4,16.8,0,16,0s-1.5,0.4-2,1.5l-4,8.3L1.6,12  c-1,0.3-1.6,1.1-1.6,2c0,0.8,0.3,1.2,1.1,2l5.4,4.7L5.3,28C5.1,29.2,5,29.6,5,30c0,1.2,1,2,2,2c0.7,0,1-0.3,2-0.9l7-4.4l7,4.4  c1,0.6,1.3,0.9,2,0.9c1,0,2-0.8,2-2c0-0.4-0.1-0.8-0.3-2l-1.3-7.3l5.4-4.7C31.7,15.2,32,14.8,32,14z" id="XMLID_65_"/></svg>